<svg xmlns="http://www.w3.org/2000/svg" xml:space="preserve" width="1500" height="159" data-id="lg_zj1jFcv7lIH6OGJCHe" data-version="1"><g data-padding="20"><g transform="translate(10 2.628)scale(.96694)"><path fill="#111" d="M654.015 68.78q4.26 0 7.67-1.79 3.4-1.79 5.33-4.91 1.92-3.13 1.92-7.12 0-3.58-1.55-6.02-1.54-2.44-4.05-4.09t-6.64-3.51q-4.61-2.13-7.12-3.64t-3.92-3.58q-1.41-2.06-1.41-5.09 0-4.19 2.55-6.63 2.54-2.44 6.81-2.44 7.08 0 10.52 7.08 1.72 3.51 2.82 8.11l.68-.2-.68-14.99h-.9l-1.65 3.3q-2.82-2.2-5.26-3.16-2.44-.97-5.26-.97-4.06 0-7.25 1.69-3.2 1.68-5.02 4.67-1.83 2.99-1.83 6.78 0 3.71 1.69 6.29 1.68 2.58 4.23 4.19 2.54 1.62 6.32 3.27 4.61 1.99 7.16 3.51 2.54 1.51 4.02 3.64t1.48 5.23q0 4.4-2.79 6.98-2.78 2.58-7.73 2.58-5.78 0-9.29-3.92-1.72-1.93-2.78-4.54-1.07-2.62-2.1-7.29l-.62.14.9 16.43h.89l1.44-3.78q2.14 1.79 5.16 2.78 3.03 1 6.26 1m35.75-47.8v45.59l-7.43.55v.55h20.15v-.55l-7.43-.55V20.98h10.04q1.65 0 2.37.52.72.51 1.34 2.09l4.27 10.59.55-.14-1.52-14.92h-.41q-1.51.69-2.58.9-1.06.2-2.71.2h-26.48q-1.65 0-2.71-.2-1.07-.21-2.58-.9h-.41l-2.69 14.92.55.14 4.75-10.59q.69-1.58 1.44-2.09.76-.52 2.41-.52Zm59.68 3.44q0-1.65-.41-2.27t-1.65-.83l-4.88-.55v-.55h15.06v.55l-4.95.55q-1.24.21-1.65.83-.42.62-.42 2.27v26.4q0 4.34-.65 7.22-.65 2.89-2.03 4.95-1.86 2.69-5.09 4.23-3.23 1.55-7.15 1.55-3.16 0-6.26-1.03-3.09-1.03-5.15-2.82-2.14-1.86-3.03-4.75-.89-2.88-.89-7.97V21.32l-5.64-.55v-.55h16.91v.55l-5.98.55v33.15q0 5.02.93 7.7t3.13 3.99q1.17.68 2.89 1.1 1.72.41 3.57.41 3.44 0 6.33-1.38 2.89-1.37 4.61-3.91 1.3-1.93 1.85-4.51t.55-6.7Zm41.54-.54q4.19 2.95 6.53 8.11t2.34 11.69-2.34 11.9q-2.34 5.36-6.53 8.39-2.69 1.92-6.16 2.82-3.47.89-8.49.89h-18.29v-.55l5.64-.55V21.33l-5.64-.55v-.55h18.29q9.35 0 14.65 3.65m-2.48 38.92q2.2-2.82 3.47-8.01t1.27-11.45q0-6.12-1.2-10.8-1.2-4.67-3.54-7.42-1.93-2.27-4.74-3.17-2.82-.89-8.05-.89h-6.74v45.79h6.74q5.5 0 8.25-.89t4.54-3.16m49.11-9.63.75.07-1.72 14.44h-33.69v-.55l5.64-.55V21.33l-5.64-.55v-.55h33.76l.97 12.93-.69.07-3.85-9.63q-.62-1.58-1.34-2.06-.73-.48-2.38-.48h-15.54v21.11h10.18q1.65 0 2.34-.55t.96-2.13l1.17-5.57h.83v17.6h-.83l-1.17-5.57q-.27-1.58-.96-2.13t-2.34-.55h-10.18v23.58h15.41q1.65 0 2.4-.51.76-.52 1.38-2.03Zm34.71-32.94h16.44v.55l-4.95.55q-1.65.21-2.2.83t-.55 2.27v44.35h-.69l-30.88-43.8h-.27v38.51q0 1.65.41 2.3t1.65.79l4.88.55v.55h-15.06v-.55l4.96-.55q1.23-.14 1.65-.79.41-.65.41-2.3V23.47l-.28-.42q-.96-1.37-1.82-1.82t-2.51-.45h-1.17v-.55h10.25l27.09 37.96h.28V24.43q0-1.65-.42-2.34-.41-.69-1.65-.76l-5.57-.55Zm34.39.75v45.59l-7.42.55v.55h20.15v-.55l-7.43-.55V20.98h10.04q1.65 0 2.37.52.72.51 1.34 2.09l4.27 10.59.55-.14-1.52-14.92h-.41q-1.51.69-2.58.9-1.06.2-2.71.2h-26.48q-1.65 0-2.71-.2-1.07-.21-2.58-.9h-.42l-2.68 14.92.55.14 4.75-10.59q.68-1.58 1.44-2.09.76-.52 2.41-.52Zm-231.12 117.67 5.71.69v.55h-16.85v-.55l5.64-.69-6.46-17.6h-16.65l-5.7 15.19q-.28.76-.28 1.24 0 .76.45 1.07t1.62.44l4.19.35v.55h-14.65v-.55l3.85-.35q1.72-.13 2.45-.68.72-.55 1.27-2.07l16.84-44.9h1.24Zm-28.19-18.7h15.81l-7.7-20.98h-.27Zm48.82 21.04q4.26 0 7.67-1.79 3.4-1.79 5.33-4.92 1.92-3.12 1.92-7.11 0-3.58-1.55-6.02-1.54-2.44-4.05-4.09t-6.64-3.51q-4.61-2.13-7.12-3.64-2.51-1.52-3.92-3.58-1.4-2.06-1.4-5.09 0-4.19 2.54-6.63t6.81-2.44q7.08 0 10.52 7.08 1.72 3.51 2.82 8.11l.68-.2-.68-14.99h-.9l-1.65 3.3q-2.82-2.2-5.26-3.17-2.44-.96-5.26-.96-4.05 0-7.25 1.69-3.2 1.68-5.02 4.67t-1.82 6.78q0 3.71 1.68 6.29t4.23 4.19q2.54 1.62 6.33 3.27 4.6 1.99 7.15 3.5 2.54 1.52 4.02 3.65t1.48 5.23q0 4.4-2.79 6.97-2.78 2.58-7.73 2.58-5.78 0-9.29-3.92-1.72-1.92-2.78-4.53-1.07-2.62-2.1-7.29l-.62.13.9 16.44h.89l1.44-3.78q2.14 1.78 5.16 2.78 3.03 1 6.26 1m36.03-21.73h-6.46v19.53l6.74.55v.55h-17.68v-.55l5.64-.55V93.54l-5.64-.55v-.55h17.4q8.05 0 12.34 3.44 4.3 3.44 4.3 9.7 0 6.67-4.26 10.17-4.26 3.51-12.38 3.51m-.2-25.99h-6.26v25.16h6.26q5.57 0 8.11-3.16t2.54-10.04q0-5.71-2.3-8.83-2.3-3.13-8.35-3.13m18.85-.28v-.55h16.57v.55l-5.64.55v45.25l5.64.55v.55h-16.57v-.55l5.64-.55V93.54Zm59.81 46.35h.96v.55h-7.08q-1.65 0-2.47-.48-.83-.48-1.72-1.86l-10.52-16.98q-.97-1.59-1.62-1.96-.65-.38-2.3-.38h-5.09v20.56l5.98.55v.55h-16.92v-.55l5.64-.55V93.54l-5.64-.55v-.55h17.4q8.12 0 12.38 3.27 4.26 3.26 4.26 9.45 0 4.82-2.61 7.91t-7.56 4.26h.06l12.59 19.67q.89 1.38 1.75 1.86t2.51.48m-23.59-46.07h-6.25v23.93h6.25q5.51 0 8.15-2.93 2.65-2.92 2.65-8.97 0-6.12-2.68-9.08-2.68-2.95-8.12-2.95"/><path fill="#111" d="m846.955 138.65 5.71.69v.55h-16.85v-.55l5.64-.69-6.47-17.6h-16.64l-5.7 15.19q-.28.76-.28 1.24 0 .76.45 1.07t1.61.44l4.2.35v.55h-14.65v-.55l3.85-.35q1.72-.13 2.44-.68.73-.55 1.28-2.07l16.84-44.9h1.24Zm-28.19-18.7h15.81l-7.7-20.98h-.27Zm45.11-26.75v45.59l-7.43.55v.55h20.15v-.55l-7.43-.55V93.2h10.04q1.65 0 2.37.51.72.52 1.34 2.1l4.27 10.59.55-.14-1.52-14.92h-.41q-1.51.69-2.58.9-1.06.2-2.71.2h-26.48q-1.65 0-2.71-.2-1.07-.21-2.58-.9h-.42l-2.68 14.92.55.14 4.75-10.59q.69-1.58 1.44-2.1.76-.51 2.41-.51Zm25.58-.21v-.55h16.57v.55l-5.64.55v45.25l5.64.55v.55h-16.57v-.55l5.63-.55V93.54Zm41.12-1.65q5.98 0 10.96 3.3 4.99 3.3 7.84 8.98 2.86 5.67 2.86 12.54 0 6.88-2.86 12.55-2.85 5.68-7.84 8.98-4.98 3.3-10.96 3.3-5.99 0-10.97-3.3-4.99-3.3-7.84-8.98-2.85-5.67-2.85-12.55 0-6.87 2.85-12.54 2.85-5.68 7.84-8.98 4.98-3.3 10.97-3.3m-15.06 24.82q0 11.49 3.92 17.71t11.14 6.22 11.14-6.22q3.91-6.22 3.91-17.71 0-11.48-3.91-17.74-3.92-6.25-11.14-6.25t-11.14 6.25q-3.92 6.26-3.92 17.74m69.79-23.71h16.44V93l-4.96.55q-1.65.21-2.2.83t-.55 2.27V141h-.68l-30.88-43.8h-.27v38.5q0 1.65.41 2.31.41.65 1.65.79l4.88.55v.55h-15.06v-.55l4.95-.55q1.24-.14 1.65-.79.42-.66.42-2.31V95.68l-.28-.41q-.96-1.37-1.82-1.82t-2.51-.45h-1.17v-.55h10.25l27.09 37.96h.27V96.65q0-1.65-.41-2.34t-1.65-.76l-5.57-.55Z"/><rect width="432.467" height="159.228" x="125.392" y="-409.184" fill="none" rx="0" ry="0" transform="translate(510.14 409.07)"/><path fill="#68b6ff" d="M531.848 12.587a5.484 5.484 0 1 0-.017-10.968 5.484 5.484 0 1 0 0 10.968m0-8.961a3.495 3.495 0 1 1 .491 6.971 3.495 3.495 0 0 1-.49-6.971m-31.158 20.5.518-.035 6.02-1.072 11.28-1.61q1.852-.345 2.872.814c1.661 1.851 1.61 6.159 1.453 7.664v.104a22.5 22.5 0 0 1-5.293 13.667l-.07.086c-3.684 4.913-1.505 7.889-1.418 8.01l10.605 12.75.225-2.405c.311-3.425.328-5.83.276-7.23v-.347l-3.633-4.342a1.73 1.73 0 0 1-.05-1.298c.5-1.712 2.507-3.58 3.562-4.429 1.454 2.44 1.315 7.785 1.211 11.453l-.052 2.595a76 76 0 0 1-.553 7.82l-.052.415.26.311c.397.52 1.16.71 2.44.934h.137q.208.052.45.052c1.42 0 2.647-1.141 2.924-2.733l1.903-11.037q.052-.156.052-.33l5.224-29.634 10.934 2.387 8.287 2.44q.692.207 1.332.207c1.21 0 2.076-.605 2.37-1.643q.207-.467.173-1.004c-.07-1.038-.45-1.678-1.367-2.3-6.107-4.672-30.379-9.187-31.417-9.377h-.034q-3.599-.52-7.3-.52a60.6 60.6 0 0 0-12.716 1.385l-11.02 1.972c-.866.138-1.575.692-2.025 1.488a3.46 3.46 0 0 0-.398 2.249c.243 1.488 1.47 2.56 2.89 2.56m-.762-3.806a1.04 1.04 0 0 1 .64-.519l11.02-1.955.19-.017.14-.035c2.11-.415 6.47-1.314 12.04-1.314q3.564 0 6.99.484c.847.173 24.946 4.688 30.568 9.013l.052.035c.485.346.52.467.52.796l-.07.26-.017.051c-.035.104-.07.225-.467.225a3.5 3.5 0 0 1-.779-.121l-8.304-2.457-13.079-2.854-5.588 31.728v.121l-.017.173-1.92 11.038c-.12.674-.588 1.072-.969 1.072h-.104l-.155-.034-.917-.173q.432-3.98.484-7.25l.052-2.629c.121-4.67.277-10.466-1.99-13.217v-.623h-1.003c-.95 0-3.91 2.786-5.034 4.74-1.21 2.077-.865 3.512-.38 4.377l3.355 4.014q.035 1.47-.103 4.221l-7.44-8.944c-.138-.207-1.21-2.093 1.384-5.553.537-.606 5.692-6.488 5.78-14.93.068-.64.552-6.384-1.956-9.17q-1.384-1.556-3.547-1.556-.553 0-1.107.104l-11.28 1.609-6.055 1.09c-.622.103-1.038-.416-1.107-.9a1.73 1.73 0 0 1 .173-.934m98.3 11.868a5.484 5.484 0 1 0 0-10.969 5.484 5.484 0 0 0 0 10.969m0-8.962a3.495 3.495 0 1 1 .49 6.972 3.495 3.495 0 0 1-.49-6.972m14.427 66.052a5.484 5.484 0 1 0 .616-10.951 5.484 5.484 0 0 0-.616 10.95m0-8.944a3.495 3.495 0 1 1 .491 6.972 3.495 3.495 0 0 1-.49-6.972m-66.675-.622a5.484 5.484 0 1 0 10.968-.018 5.484 5.484 0 1 0-10.968 0m8.961 0a3.495 3.495 0 1 1-6.972.492 3.495 3.495 0 0 1 6.972-.492m-64.373-38.977a5.484 5.484 0 1 0 10.968 0 5.484 5.484 0 0 0-10.95 0m5.483-3.46a3.495 3.495 0 1 1 0 6.955 3.495 3.495 0 0 1 0-6.972M615.321 63.57a3.287 3.287 0 0 0-3.65 3.028l-.987 10.898 1.298-.242c1.384-.26 2.768 0 3.98.675l.19.104 1.227.086.986-10.916c.173-1.851-1.21-3.477-3.062-3.633m.277 12.023a8.7 8.7 0 0 0-2.56-.415h-.139l.744-8.408a1.384 1.384 0 0 1 2.734.243Zm-14.93 43.112q2.872-1.176 4.844-2.059l.52-.242 1.954-.917.865-.398.156-.069c7.646-3.996 6.781-16.158 6.695-17.11q-.07-4.74-2.44-6.885a5.88 5.88 0 0 0-5.103-1.384c-2.405.554-4.308.9-4.723.986h-9.636l-7.318.139a3.356 3.356 0 0 0-3.339 3.39 3.374 3.374 0 0 0 3.391 3.322l9.775-.087h5.553q.97 0 1.505.554c.727.779.813 2.214.78 2.682v.103c.172 5.52-9.828 12.197-13.668 14.29-5.9 2.941-6.142 6.99-6.16 7.162v3.374l.035.882.208 9.117a3.37 3.37 0 0 0 3.356 3.287h.07q1.383-.034 2.352-1.038c.623-.64.952-1.488.934-2.387l-.19-8.892a8.82 8.82 0 0 1 5.796-6.453q.934-.277 2.266-.796v.052Zm-4.36-.554c-.242.087-6.054 1.92-7.196 8.114l-.018.087.19 9.117a1.384 1.384 0 0 1-1.349 1.384h-.017a1.384 1.384 0 0 1-1.384-1.332l-.19-9.982-.035-.52v-2.767c.035-.208.433-3.149 5.086-5.467.606-.329 14.948-8.235 14.74-16.09.017-.432.052-2.646-1.298-4.1a3.98 3.98 0 0 0-2.975-1.21h-5.553l-9.792.103a1.384 1.384 0 0 1 0-2.733l7.3-.138h9.688l.19-.018c.018 0 2.13-.398 4.88-1.003q.034-.035.674-.052c3.84 0 4.446 4.031 4.463 6.436v.069c.018.121.935 11.141-5.138 14.912l-.692.381-3.166 1.453-.484.242-3.27 1.384-1.038.433q-2.249.9-3.633 1.298"/><path fill="#68b6ff" d="M609.525 125.262a10.38 10.38 0 0 1-2.664-6.886l.035-1.557-1.42.623q-1.989.865-4.67 1.972l-.675.277.07.727c.38 4.152 3.113 7.837 4.722 9.653l7.56 7.076a3.425 3.425 0 0 0 4.602-5.052Zm6.315 10.31a1.436 1.436 0 0 1-2.024.104l-7.336-6.833-.069-.07c-1.09-1.245-3.546-4.376-4.135-7.819l2.682-1.107a12.8 12.8 0 0 0 3.027 6.66l7.768 7.076a1.384 1.384 0 0 1 .087 1.99m-43.112-72.608c-.242.155-1.903 1.107-3.287 3.165-1.332 1.99-2.699 5.45-1.557 10.605l.64 4.273a3.356 3.356 0 0 0 6.626-1.055l-.536-3.53c0-.051-.606-4.843 3.39-7.698l8.84-5.864a17.3 17.3 0 0 1-3.269 9.463 13.84 13.84 0 0 0-3.183 8.373q-.017.9.035 1.903l.034 2.11a3.34 3.34 0 0 0 3.34 3.253h.103a3.34 3.34 0 0 0 3.252-3.425l-.017-1.333v-.432l-.035-1.522c.242-1.99 1.61-6.004 7.976-11.02.778-.433 4.93-3.218 5.26-12.578l.518-13.217c2.197 1.419 6.712 5.052 10.172 12.698l.727 3.028a3.356 3.356 0 0 0 6.141.986 3.38 3.38 0 0 0 .398-2.543l-.882-3.668-.138-.623-.38-1.557-.018-.069a10 10 0 0 0-.45-1.21l-.07-.174q-.242-.415-.415-.865l-.069-.173-.173-.346-.346-.709-.034-.052-.173-.363c-2.872-5.57-9.066-13.044-22.23-17.093l-13.028-3.91-7.785-2.525a3.365 3.365 0 0 0-2.076 6.4l9.498 3.063c.865.415 9.62 5.155 4.325 17.213-.277.502-3.858 6.66-11.14 11.02m7.628-30.05-9.67-3.148a1.384 1.384 0 0 1-.883-1.73 1.384 1.384 0 0 1 1.73-.865l7.785 2.526 13.044 3.91c12.508 3.84 18.338 10.881 21.037 16.106l.121.225.035.069.034.069.554 1.125q.208.519.467 1.003l.225.623.173.45.346 1.522.156.57.865 3.703q.138.519-.156 1.038a1.38 1.38 0 0 1-1.16.64 1.384 1.384 0 0 1-1.33-1.038l-.762-3.148-.052-.173c-5.07-11.263-12.283-14.411-12.577-14.532l-1.333-.554-.622 16.262c-.312 8.806-4.222 10.916-4.256 10.934l-.104.051-.07.052c-6.712 5.26-8.493 9.688-8.805 12.49v.07l.052 3.408q0 .554-.38.986a1.38 1.38 0 0 1-.952.416h-.035a1.384 1.384 0 0 1-1.366-1.315l-.035-2.128v-.035q-.052-.882-.035-1.695v-.07a12.1 12.1 0 0 1 2.7-7.092l.051-.07a19.03 19.03 0 0 0 3.685-12.646l-.173-1.643-11.764 7.802a10.55 10.55 0 0 0-4.238 9.619l.536 3.563a1.368 1.368 0 1 1-2.699.45l-.64-4.307-.017-.052c-1.869-8.443 3.633-11.505 3.875-11.626l.034-.035c8.028-4.809 11.747-11.539 11.903-11.815l.034-.07c6.298-14.255-5.207-19.843-5.328-19.895m-1.972 55.43h-7.958l-.415.034-12.353-.069c-3.235-1.73-9.774-2.768-10.57-2.89-2.94-.899-10.899-8.51-14.774-12.213a14 14 0 0 0-1.055-1.073l-5.83-5.414a3.34 3.34 0 0 0-4.74.173 3.344 3.344 0 0 0 .172 4.74l5.813 5.415q.277.276.692.57l4.273 3.737a30.28 30.28 0 0 1 10.52 18.978v.087a61.6 61.6 0 0 0 10.898 25.863l1.16 1.852.19.294 3.91 5.293a3.39 3.39 0 0 0 4.704.675 3.356 3.356 0 0 0 .658-4.688l-3.806-5.173-.208-.277c-.346-.484-.917-1.263-1.315-1.73-4.584-6.072-3.806-7.785-3.684-7.975l.155-.121a1.04 1.04 0 0 1 .727-.294c1.055 0 2.474 1.453 3.114 2.353l2.25 2.422q.518.622 2.63 2.871c.83.9 1.867 2.007 2.023 2.215l5.26 5.484a3.34 3.34 0 0 0 4.756-.087c1.298-1.314 1.263-3.46-.052-4.722l-4.896-5.07-.519-.518c-13.113-12.041-11.764-21.59-11.14-24.03h19.41a3.356 3.356 0 0 0 0-6.712m0 4.722h-20.813l-.26.606c-.19.484-4.844 11.937 11.418 26.867l.485.467 4.896 5.086a1.367 1.367 0 0 1-1.869 1.99l-5.103-5.294c-.242-.329-.865-1.003-2.145-2.353-.952-1.038-2.267-2.422-2.492-2.75l-2.249-2.388c-.38-.519-2.387-3.149-4.705-3.149q-1.073 0-1.955.727c-.26.173-.727.57-.952 1.384q-.76 3.028 4.152 9.498l.035.034c.346.398.917 1.211 1.211 1.627l.242.31 3.806 5.156a1.37 1.37 0 0 1-2.18 1.661l-3.823-5.19-.173-.26a54 54 0 0 0-1.194-1.902l-.034-.052a59.7 59.7 0 0 1-10.553-25.016c-.087-.934-1.28-12.11-11.193-20.276l-4.325-3.754-.07-.069-.518-.432-5.813-5.415a1.384 1.384 0 0 1 .934-2.37q.52 0 .934.346l5.83 5.449c.173.173.658.606.9.917l.086.086c5.97 5.71 12.595 11.868 15.71 12.75l.12.035c.07 0 7.231 1.055 10.172 2.768l.242.139h.26l12.68.069h.157l.173-.035h7.975a1.384 1.384 0 1 1 0 2.734m-101.274-1.886-.779-1.626-8.58 13.563-4.585 7.024a3.361 3.361 0 0 0 5.622 3.685l3.858-5.882 7.785-10.26-.31-.553a142 142 0 0 1-3.01-5.951m-6.056 15.57-3.945 5.986a1.384 1.384 0 1 1-2.283-1.505l4.601-7.042 6.66-10.553 1.973 3.876Zm45.36-46.952-2.249-1.436c-1.35-.9-8.304-5.519-14.393-9.065a18 18 0 0 0-8.996-2.682q-1.332.017-2.18.173c-.692-4.775.97-10.415 2.578-14.428l4.29-7.906a3.356 3.356 0 0 0-2.89-4.948c-1.176 0-2.265.657-2.87 1.73l-1.437 2.249c-7.56 10.709-7.906 20.864-7.906 21.279v.208l.052.173c1.851 4.947-2.44 22.144-4.239 28.372l-.017.034c-1.903 7.958 1.436 14.826 1.678 15.345l1.886 4.083 1.107 2.266 10.276 15.57 1.056 2.197a3.374 3.374 0 0 0 4.498 1.575 3.356 3.356 0 0 0 1.557-4.481l-4.74-9.861-.035.035-1.488-3.045-.052-.087c-3.564-5.674-3.356-9.255-3.27-10.034 2.267-3.321 2.18-10.553 2.18-10.847v-.104l-.034-.103c-1.073-4.671 4.29-15.138 7.006-19.757l11.695 6.92 3.2 2.163a3.373 3.373 0 0 0 4.671-.917c1.038-1.523.623-3.633-.934-4.671m-.726 3.563a1.384 1.384 0 0 1-1.903.381l-3.218-2.18-13.477-7.975-.519.83a90 90 0 0 0-4.41 8.339q-4.257 9.238-3.34 13.632c.017 2.076-.277 7.543-1.92 9.74l-.12.173-.054.173c-.034.19-1.038 4.498 3.46 11.678l2.595 5.328h.035l3.616 7.491a1.384 1.384 0 0 1-2.474 1.176l-1.125-2.335-10.24-15.5-1.09-2.198-1.852-4.065-.018-.035a22.5 22.5 0 0 1-1.557-13.978c.122-.416 1.73-5.952 3.028-12.162 1.782-8.547 2.214-14.342 1.246-17.214.086-1.367.847-10.553 7.56-20.068l1.487-2.3.035-.053c.363-.674 1.107-.934 1.73-.588.657.346.917 1.194.554 1.851l-4.325 7.958-.052.104c-1.817 4.567-3.737 11.193-2.49 16.695l.258 1.124 1.09-.415s.951-.38 2.595-.38c1.73 0 4.533.432 7.958 2.421 6.072 3.53 12.975 8.114 14.324 8.996l2.25 1.453a1.384 1.384 0 0 1 .363 1.903"/></g><path fill="transparent" stroke="transparent" d="M447.5 0h605v159h-605z"/></g></svg>